# MagicaVoxel @ Ephtracy

# group
o 

# material
mtllib StopLight-1.mtl
usemtl palette

# normals
vn -1 0 0
vn 1 0 0
vn 0 0 1
vn 0 0 -1
vn 0 -1 0
vn 0 1 0

# texcoords
vt 0.974609 0.5

# verts
v -1 0.1 9.5
v -1 0.1 7.5
v -1 1 9.5
v -1 1 7.5
v -0.9 1 9.3
v -0.9 1 7.7
v -0.9 1.9 9.3
v -0.9 1.9 7.7
v -0.8 1 9.4
v -0.8 1 9.3
v -0.8 1 7.7
v -0.8 1 7.6
v -0.8 1.9 9.4
v -0.8 1.9 9.3
v -0.8 1.9 9.2
v -0.8 1.9 7.8
v -0.8 1.9 7.7
v -0.8 1.9 7.6
v -0.8 2.8 9.2
v -0.8 2.8 7.8
v -0.7 1.9 9.3
v -0.7 1.9 9.2
v -0.7 1.9 7.8
v -0.7 1.9 7.7
v -0.7 2.8 9.3
v -0.7 2.8 9.2
v -0.7 2.8 7.8
v -0.7 2.8 7.7
v -0.2 2.8 8.7
v -0.2 2.8 8.3
v -0.2 12.7 8.7
v -0.2 12.7 8.3
v 0.2 2.8 8.7
v 0.2 2.8 8.3
v 0.2 12.7 8.7
v 0.2 12.7 8.3
v 0.7 1.9 9.3
v 0.7 1.9 9.2
v 0.7 1.9 7.8
v 0.7 1.9 7.7
v 0.7 2.8 9.3
v 0.7 2.8 9.2
v 0.7 2.8 7.8
v 0.7 2.8 7.7
v 0.8 1 9.4
v 0.8 1 9.3
v 0.8 1 7.7
v 0.8 1 7.6
v 0.8 1.9 9.4
v 0.8 1.9 9.3
v 0.8 1.9 9.2
v 0.8 1.9 7.8
v 0.8 1.9 7.7
v 0.8 1.9 7.6
v 0.8 2.8 9.2
v 0.8 2.8 7.8
v 0.9 1 9.3
v 0.9 1 7.7
v 0.9 1.9 9.3
v 0.9 1.9 7.7
v 1 0.1 9.5
v 1 0.1 7.5
v 1 1 9.5
v 1 1 7.5
v -1 0.1 9.5
v -1 1 9.5
v 1 0.1 9.5
v 1 1 9.5
v -0.8 1 9.4
v -0.8 1.9 9.4
v 0.8 1 9.4
v 0.8 1.9 9.4
v -0.9 1 9.3
v -0.9 1.9 9.3
v -0.8 1 9.3
v -0.8 1.9 9.3
v -0.7 1.9 9.3
v -0.7 2.8 9.3
v 0.7 1.9 9.3
v 0.7 2.8 9.3
v 0.8 1 9.3
v 0.8 1.9 9.3
v 0.9 1 9.3
v 0.9 1.9 9.3
v -0.8 1.9 9.2
v -0.8 2.8 9.2
v -0.7 1.9 9.2
v -0.7 2.8 9.2
v 0.7 1.9 9.2
v 0.7 2.8 9.2
v 0.8 1.9 9.2
v 0.8 2.8 9.2
v -0.2 2.8 8.7
v -0.2 12.7 8.7
v 0.2 2.8 8.7
v 0.2 12.7 8.7
v -0.2 2.8 8.3
v -0.2 12.7 8.3
v 0.2 2.8 8.3
v 0.2 12.7 8.3
v -0.8 1.9 7.8
v -0.8 2.8 7.8
v -0.7 1.9 7.8
v -0.7 2.8 7.8
v 0.7 1.9 7.8
v 0.7 2.8 7.8
v 0.8 1.9 7.8
v 0.8 2.8 7.8
v -0.9 1 7.7
v -0.9 1.9 7.7
v -0.8 1 7.7
v -0.8 1.9 7.7
v -0.7 1.9 7.7
v -0.7 2.8 7.7
v 0.7 1.9 7.7
v 0.7 2.8 7.7
v 0.8 1 7.7
v 0.8 1.9 7.7
v 0.9 1 7.7
v 0.9 1.9 7.7
v -0.8 1 7.6
v -0.8 1.9 7.6
v 0.8 1 7.6
v 0.8 1.9 7.6
v -1 0.1 7.5
v -1 1 7.5
v 1 0.1 7.5
v 1 1 7.5
v -1 0.1 9.5
v 1 0.1 9.5
v -1 0.1 7.5
v 1 0.1 7.5
v -1 1 9.5
v 1 1 9.5
v -0.8 1 9.4
v 0.8 1 9.4
v -0.9 1 9.3
v -0.8 1 9.3
v 0.8 1 9.3
v 0.9 1 9.3
v -0.9 1 7.7
v -0.8 1 7.7
v 0.8 1 7.7
v 0.9 1 7.7
v -0.8 1 7.6
v 0.8 1 7.6
v -1 1 7.5
v 1 1 7.5
v -0.8 1.9 9.4
v 0.8 1.9 9.4
v -0.9 1.9 9.3
v -0.8 1.9 9.3
v -0.7 1.9 9.3
v 0.7 1.9 9.3
v 0.8 1.9 9.3
v 0.9 1.9 9.3
v -0.8 1.9 9.2
v -0.7 1.9 9.2
v 0.7 1.9 9.2
v 0.8 1.9 9.2
v -0.8 1.9 7.8
v -0.7 1.9 7.8
v 0.7 1.9 7.8
v 0.8 1.9 7.8
v -0.9 1.9 7.7
v -0.8 1.9 7.7
v -0.7 1.9 7.7
v 0.7 1.9 7.7
v 0.8 1.9 7.7
v 0.9 1.9 7.7
v -0.8 1.9 7.6
v 0.8 1.9 7.6
v -0.7 2.8 9.3
v 0.7 2.8 9.3
v -0.8 2.8 9.2
v -0.7 2.8 9.2
v 0.7 2.8 9.2
v 0.8 2.8 9.2
v -0.2 2.8 8.7
v 0.2 2.8 8.7
v -0.2 2.8 8.3
v 0.2 2.8 8.3
v -0.8 2.8 7.8
v -0.7 2.8 7.8
v 0.7 2.8 7.8
v 0.8 2.8 7.8
v -0.7 2.8 7.7
v 0.7 2.8 7.7
v -0.2 12.7 8.7
v 0.2 12.7 8.7
v -0.2 12.7 8.3
v 0.2 12.7 8.3

# faces
f 3/1/1 2/1/1 1/1/1
f 4/1/1 2/1/1 3/1/1
f 7/1/1 6/1/1 5/1/1
f 8/1/1 6/1/1 7/1/1
f 13/1/1 10/1/1 9/1/1
f 14/1/1 10/1/1 13/1/1
f 17/1/1 12/1/1 11/1/1
f 18/1/1 12/1/1 17/1/1
f 19/1/1 16/1/1 15/1/1
f 20/1/1 16/1/1 19/1/1
f 25/1/1 22/1/1 21/1/1
f 26/1/1 22/1/1 25/1/1
f 27/1/1 24/1/1 23/1/1
f 28/1/1 24/1/1 27/1/1
f 31/1/1 30/1/1 29/1/1
f 32/1/1 30/1/1 31/1/1
f 33/1/2 34/1/2 35/1/2
f 35/1/2 34/1/2 36/1/2
f 37/1/2 38/1/2 41/1/2
f 41/1/2 38/1/2 42/1/2
f 39/1/2 40/1/2 43/1/2
f 43/1/2 40/1/2 44/1/2
f 45/1/2 46/1/2 49/1/2
f 49/1/2 46/1/2 50/1/2
f 47/1/2 48/1/2 53/1/2
f 53/1/2 48/1/2 54/1/2
f 51/1/2 52/1/2 55/1/2
f 55/1/2 52/1/2 56/1/2
f 57/1/2 58/1/2 59/1/2
f 59/1/2 58/1/2 60/1/2
f 61/1/2 62/1/2 63/1/2
f 63/1/2 62/1/2 64/1/2
f 67/1/3 66/1/3 65/1/3
f 68/1/3 66/1/3 67/1/3
f 71/1/3 70/1/3 69/1/3
f 72/1/3 70/1/3 71/1/3
f 75/1/3 74/1/3 73/1/3
f 76/1/3 74/1/3 75/1/3
f 79/1/3 78/1/3 77/1/3
f 80/1/3 78/1/3 79/1/3
f 83/1/3 82/1/3 81/1/3
f 84/1/3 82/1/3 83/1/3
f 87/1/3 86/1/3 85/1/3
f 88/1/3 86/1/3 87/1/3
f 91/1/3 90/1/3 89/1/3
f 92/1/3 90/1/3 91/1/3
f 95/1/3 94/1/3 93/1/3
f 96/1/3 94/1/3 95/1/3
f 97/1/4 98/1/4 99/1/4
f 99/1/4 98/1/4 100/1/4
f 101/1/4 102/1/4 103/1/4
f 103/1/4 102/1/4 104/1/4
f 105/1/4 106/1/4 107/1/4
f 107/1/4 106/1/4 108/1/4
f 109/1/4 110/1/4 111/1/4
f 111/1/4 110/1/4 112/1/4
f 113/1/4 114/1/4 115/1/4
f 115/1/4 114/1/4 116/1/4
f 117/1/4 118/1/4 119/1/4
f 119/1/4 118/1/4 120/1/4
f 121/1/4 122/1/4 123/1/4
f 123/1/4 122/1/4 124/1/4
f 125/1/4 126/1/4 127/1/4
f 127/1/4 126/1/4 128/1/4
f 131/1/5 130/1/5 129/1/5
f 132/1/5 130/1/5 131/1/5
f 133/1/6 134/1/6 135/1/6
f 135/1/6 134/1/6 136/1/6
f 133/1/6 135/1/6 137/1/6
f 137/1/6 135/1/6 138/1/6
f 136/1/6 134/1/6 139/1/6
f 139/1/6 134/1/6 140/1/6
f 133/1/6 137/1/6 141/1/6
f 140/1/6 134/1/6 144/1/6
f 141/1/6 142/1/6 145/1/6
f 143/1/6 144/1/6 146/1/6
f 141/1/6 145/1/6 147/1/6
f 145/1/6 146/1/6 147/1/6
f 133/1/6 141/1/6 147/1/6
f 146/1/6 144/1/6 148/1/6
f 147/1/6 146/1/6 148/1/6
f 144/1/6 134/1/6 148/1/6
f 149/1/6 150/1/6 152/1/6
f 152/1/6 150/1/6 153/1/6
f 153/1/6 150/1/6 154/1/6
f 154/1/6 150/1/6 155/1/6
f 151/1/6 152/1/6 157/1/6
f 152/1/6 153/1/6 157/1/6
f 157/1/6 153/1/6 158/1/6
f 155/1/6 156/1/6 159/1/6
f 154/1/6 155/1/6 159/1/6
f 159/1/6 156/1/6 160/1/6
f 151/1/6 157/1/6 161/1/6
f 160/1/6 156/1/6 164/1/6
f 161/1/6 162/1/6 165/1/6
f 151/1/6 161/1/6 165/1/6
f 165/1/6 162/1/6 166/1/6
f 166/1/6 162/1/6 167/1/6
f 163/1/6 164/1/6 168/1/6
f 164/1/6 156/1/6 169/1/6
f 168/1/6 164/1/6 169/1/6
f 169/1/6 156/1/6 170/1/6
f 166/1/6 167/1/6 171/1/6
f 167/1/6 168/1/6 171/1/6
f 168/1/6 169/1/6 171/1/6
f 171/1/6 169/1/6 172/1/6
f 173/1/6 174/1/6 176/1/6
f 176/1/6 174/1/6 177/1/6
f 175/1/6 176/1/6 179/1/6
f 177/1/6 178/1/6 179/1/6
f 176/1/6 177/1/6 179/1/6
f 179/1/6 178/1/6 180/1/6
f 175/1/6 179/1/6 181/1/6
f 180/1/6 178/1/6 182/1/6
f 175/1/6 181/1/6 183/1/6
f 181/1/6 182/1/6 183/1/6
f 183/1/6 182/1/6 184/1/6
f 182/1/6 178/1/6 185/1/6
f 184/1/6 182/1/6 185/1/6
f 185/1/6 178/1/6 186/1/6
f 184/1/6 185/1/6 187/1/6
f 187/1/6 185/1/6 188/1/6
f 189/1/6 190/1/6 191/1/6
f 191/1/6 190/1/6 192/1/6
