# MagicaVoxel @ Ephtracy

# group
o 

# material
mtllib StraightSidewalk.mtl
usemtl palette

# normals
vn -1 0 0
vn 1 0 0
vn 0 0 1
vn 0 0 -1
vn 0 -1 0
vn 0 1 0

# texcoords
vt 0.974609 0.5

# verts
v 0 2 0
v 0 2 -4
v 0 2.2 -3.6
v 0 2.2 -3.7
v 0 2.3 0
v 0 2.3 -3.6
v 0 2.3 -3.7
v 0 2.3 -4
v 3.9 2.2 0
v 3.9 2.2 -3.6
v 3.9 2.3 0
v 3.9 2.3 -3.6
v 4 2 0
v 4 2 -4
v 4 2.2 0
v 4 2.2 -3.7
v 4 2.3 -3.7
v 4 2.3 -4
v 0 2 0
v 0 2.3 0
v 3.9 2.2 0
v 3.9 2.3 0
v 4 2 0
v 4 2.2 0
v 0 2.2 -3.7
v 0 2.3 -3.7
v 4 2.2 -3.7
v 4 2.3 -3.7
v 0 2.2 -3.6
v 0 2.3 -3.6
v 3.9 2.2 -3.6
v 3.9 2.3 -3.6
v 0 2 -4
v 0 2.3 -4
v 4 2 -4
v 4 2.3 -4
v 0 2 0
v 4 2 0
v 0 2 -4
v 4 2 -4
v 3.9 2.2 0
v 4 2.2 0
v 0 2.2 -3.6
v 3.9 2.2 -3.6
v 0 2.2 -3.7
v 4 2.2 -3.7
v 0 2.3 0
v 3.9 2.3 0
v 0 2.3 -3.6
v 3.9 2.3 -3.6
v 0 2.3 -3.7
v 4 2.3 -3.7
v 0 2.3 -4
v 4 2.3 -4

# faces
f 3/1/1 2/1/1 1/1/1
f 4/1/1 2/1/1 3/1/1
f 5/1/1 3/1/1 1/1/1
f 6/1/1 3/1/1 5/1/1
f 7/1/1 2/1/1 4/1/1
f 8/1/1 2/1/1 7/1/1
f 9/1/2 10/1/2 11/1/2
f 11/1/2 10/1/2 12/1/2
f 13/1/2 14/1/2 15/1/2
f 15/1/2 14/1/2 16/1/2
f 16/1/2 14/1/2 17/1/2
f 17/1/2 14/1/2 18/1/2
f 21/1/3 20/1/3 19/1/3
f 22/1/3 20/1/3 21/1/3
f 23/1/3 21/1/3 19/1/3
f 24/1/3 21/1/3 23/1/3
f 27/1/3 26/1/3 25/1/3
f 28/1/3 26/1/3 27/1/3
f 29/1/4 30/1/4 31/1/4
f 31/1/4 30/1/4 32/1/4
f 33/1/4 34/1/4 35/1/4
f 35/1/4 34/1/4 36/1/4
f 39/1/5 38/1/5 37/1/5
f 40/1/5 38/1/5 39/1/5
f 41/1/6 42/1/6 44/1/6
f 43/1/6 44/1/6 45/1/6
f 44/1/6 42/1/6 46/1/6
f 45/1/6 44/1/6 46/1/6
f 47/1/6 48/1/6 49/1/6
f 49/1/6 48/1/6 50/1/6
f 51/1/6 52/1/6 53/1/6
f 53/1/6 52/1/6 54/1/6
